<?xml version="1.0"?>
<svg width="360" height="359.999987" xmlns="http://www.w3.org/2000/svg" xmlns:svg="http://www.w3.org/2000/svg" preserveAspectRatio="xMidYMid meet" version="1.0">
 <defs>
  <clipPath id="id1">
   <path clip-rule="nonzero" d="m104.02,13l152.98,0l0,336l-152.98,0l0,-336zm0,0" id="svg_1"/>
  </clipPath>
 </defs>
 <g class="layer">
  <title>Layer 1</title>
  <g clip-path="url(#id1)" id="svg_2">
   <path d="m169.21,219.33l-0.6,0.2c0.03,0 0.07,0 0.1,0c0.09,0 0.18,0.01 0.27,0.04c0.06,-0.05 0.1,-0.09 0.13,-0.12c0.04,-0.05 0.07,-0.07 0.07,-0.09l0.03,-0.03zm-0.23,0.24l-0.05,0.04c-0.16,0.11 -0.34,0.18 -0.54,0.19c-0.16,0.02 -0.57,0.04 -1.2,0.04c-0.12,0 -0.24,0 -0.37,0c-0.09,0 -0.18,0.03 -0.27,0.09c-0.12,0.08 -0.19,0.24 -0.2,0.46l0,0.08l0.29,1.13c-0.01,0.15 -0.07,0.29 -0.17,0.4c-0.09,0.16 -0.36,0.27 -0.81,0.34c-0.04,0.01 -0.09,0.02 -0.14,0.02c-0.18,0 -0.43,-0.05 -0.75,-0.15c-0.01,0 -0.02,0 -0.02,0c-0.06,0 -0.14,0.02 -0.23,0.06c-0.66,0.36 -1.06,0.76 -1.2,1.21c0.05,0.12 0.2,0.2 0.46,0.22l0.11,0c0.16,-0.05 0.33,-0.08 0.52,-0.11c0.04,0 0.07,0 0.11,0c0.08,0 0.15,0 0.23,0.02c0.16,0.03 0.43,0.13 0.82,0.31l0.45,0.11c0.02,0 0.05,0 0.07,0c0.2,0 0.51,-0.06 0.93,-0.17c0.01,0 0.02,0 0.03,0c0.15,0 0.27,0.04 0.34,0.12c0.12,0.09 0.04,0.26 -0.22,0.52c-0.23,0.15 -0.59,0.34 -1.08,0.58c-0.15,0.1 -0.24,0.16 -0.25,0.18c-0.14,0.16 -0.21,0.33 -0.2,0.52c-0.01,0.16 0.08,0.3 0.27,0.43c0.06,0.05 0.14,0.09 0.22,0.12c0.12,0.05 0.28,0.09 0.46,0.12c0.07,0.03 0.12,0.06 0.16,0.09c0.22,0.48 0.43,0.74 0.61,0.78c0.09,0.04 0.18,0.05 0.28,0.05c0.09,0 0.19,-0.01 0.29,-0.04l1.02,-0.54c0.1,-0.03 0.45,-0.09 1.04,-0.17c0.06,-0.01 0.13,-0.05 0.22,-0.1c0.25,-0.23 0.41,-0.54 0.47,-0.93c0.01,-0.15 0.01,-0.27 0,-0.35l-0.29,-1.83c0,-0.05 -0.04,-0.17 -0.14,-0.34c-0.04,-0.09 -0.22,-0.41 -0.56,-0.95c-0.03,-0.06 -0.06,-0.14 -0.08,-0.24c-0.08,-0.25 -0.09,-0.7 -0.03,-1.34c-0.01,-0.15 -0.04,-0.29 -0.09,-0.43c-0.13,-0.33 -0.31,-0.51 -0.51,-0.54zm-28.55,-206.57c-0.06,0 -0.12,0 -0.17,0.01l-0.08,0c-3.75,2.15 -6.8,5.09 -9.15,8.81c-0.22,0.31 0.01,1.83 0.68,4.57c-0.96,1.88 -1.37,4.62 -1.23,8.22c-5.05,1.26 -8.74,3.53 -11.05,6.79c-0.36,0.72 -0.16,2.1 0.6,4.13c-0.79,1.51 -1.17,2.49 -1.13,2.97l1.76,7.87l-1,3.45c0.01,1.36 0.93,2.55 2.75,3.58c0.27,0.56 0.33,1.03 0.21,1.39c-0.26,0.73 -0.62,1.26 -1.09,1.62c-2.83,0.83 -4.63,2.09 -5.4,3.77c-0.19,0.28 -0.3,1.52 -0.33,3.72c-0.39,1.07 -0.85,2.07 -1.37,3l-2.24,3.88c0.31,0 0.27,0.67 -0.1,2.01c-0.09,0.62 -1.06,3.34 -2.91,8.14c1.04,3.16 1.56,6.01 1.56,8.55c-1.97,1.63 -3.09,2.84 -3.38,3.63c-1.23,4.49 -1.86,7.93 -1.89,10.33c0.03,0.96 0.67,1.86 1.91,2.68c-0.11,1.15 0.09,2.11 0.6,2.89c0.48,0.94 1.23,2.01 2.22,3.22l2.05,7.8c0.07,0.13 0.15,0.27 0.26,0.42l-0.01,0.01c-0.04,0.05 -0.08,0.11 -0.11,0.16c-0.04,0.56 -0.01,0.85 0.1,0.89l1.31,1.31c-0.03,0.77 0.1,1.56 0.4,2.34c-0.23,0.41 -0.36,1 -0.4,1.78c0.01,0.43 0.13,0.83 0.34,1.19l-0.49,1.17l0.47,1.48l-2.91,5.33l0.27,1.16l-1.07,2.27c0.33,0.76 0.23,1.86 -0.29,3.32c0.06,0.68 0.51,1.6 1.33,2.76l0.32,3.2l-4.43,6.17l-0.98,7.23c-0.06,0.74 0.17,1.74 0.69,2.98c-0.11,1.44 -0.14,2.36 -0.08,2.75c0.46,1.45 0.75,2.78 0.88,3.98c1.42,1.77 2.19,3.27 2.33,4.51c-0.72,1.45 -2.02,2.58 -3.91,3.37c-0.19,0.26 -0.27,0.6 -0.25,1.01c0.58,0.93 0.8,1.86 0.66,2.78c-1.55,0.77 -2.34,1.53 -2.39,2.25c0.29,0.93 0.84,2.12 1.65,3.56l-0.81,2.17l0.5,2.4l-1.07,3.22c-0.03,0.2 0.21,1.2 0.71,3l-0.65,2.56c0.03,-0.07 0.08,-0.11 0.12,-0.11c0.43,0 1.22,2.87 2.39,8.61c-0.04,0.47 -0.98,1.21 -2.8,2.23c-0.15,0.17 -0.26,0.35 -0.31,0.56l-0.04,0.33l1.43,1.77c-0.4,1.91 -0.55,3.45 -0.45,4.63c0.04,0.2 0.1,0.35 0.19,0.42l3.09,2.62c-0.29,2.57 0.41,4.41 2.1,5.52c-0.9,3.16 -1.25,4.97 -1.05,5.43l5.87,1.14c0.12,0.07 0.2,0.23 0.25,0.45c-0.18,0.93 -0.25,1.71 -0.2,2.35l0,0c-0.09,0.17 -0.18,0.34 -0.28,0.5c-0.22,0.08 -0.41,0.11 -0.6,0.11c-0.45,0 -0.8,-0.22 -1.07,-0.66c-0.53,0.75 -0.86,1.13 -0.99,1.13c-0.02,0 -0.03,0 -0.04,-0.01c-0.76,-0.58 -1.22,-0.88 -1.36,-0.88c-0.02,0 -0.03,0 -0.04,0.01c-0.74,0.15 -1.4,0.63 -1.99,1.45c-0.06,0.1 0,0.23 0.18,0.39c0.76,0.07 1.89,0.52 3.39,1.36c0.35,0.2 0.72,0.48 1.11,0.81l0,0c-0.15,0.15 -0.28,0.34 -0.39,0.59c0.64,0.75 1.04,1.35 1.18,1.8c0.13,0.09 0.08,0.53 -0.13,1.31c-0.11,0.61 -0.81,1.61 -2.1,2.99l1.03,1.98l-0.86,2.18l0.21,1.83c0.02,0.2 0.38,0.55 1.06,1.07c0.08,0.69 0.33,1.3 0.75,1.86l-1.86,3.36c-0.05,0.18 -0.05,0.36 -0.01,0.53c0.51,0.76 0.71,1.23 0.6,1.41c-0.05,0.37 -0.62,0.83 -1.72,1.37l-1.46,2.83c0.35,0.41 0.52,0.7 0.52,0.87c-0.55,0.94 -0.66,2.08 -0.32,3.42c1.6,1.88 2.26,2.93 1.98,3.17c-0.48,1.35 -1.06,2.2 -1.74,2.58c0.6,1.07 0.74,2 0.43,2.78l-2.87,1.88l-0.42,2.23c-1.13,0.21 -1.75,0.47 -1.88,0.79c-0.14,0.97 -0.19,1.54 -0.17,1.7c0.07,0.99 0.28,1.82 0.62,2.5l-0.07,1.33c0.42,0.47 0.62,0.78 0.61,0.94l-0.81,1.89l0.69,0.95c1.34,0.6 2.12,1.15 2.34,1.63c0.69,1.22 0.84,2.28 0.45,3.18c0.19,0.49 0.37,0.78 0.54,0.87l3.47,-2.38c0.33,-0.12 0.65,-0.18 0.98,-0.18c0.65,0 1.3,0.23 1.94,0.69l0,0.01c0,-0.01 0,-0.01 0,-0.01l-0.01,0c-0.1,0.01 0.08,1.02 0.54,3.02c-0.65,3.12 -0.85,4.92 -0.61,5.42c0.55,0.92 1.56,1.53 3.02,1.83c0.66,1.67 1.12,2.59 1.38,2.78c4.55,-0.01 7.78,-0.4 9.72,-1.15l9.62,1.58l1.45,1.04l0.24,-0.01c0.51,-0.06 1.05,-0.34 1.63,-0.86l-0.59,-0.34l-4.84,-6.34c-0.07,-0.16 0.04,-0.89 0.36,-2.18c-0.09,-1.04 -0.32,-2.12 -0.71,-3.23l-0.48,-5.43c0.03,-0.39 0.74,-1.19 2.14,-2.38c1.28,-0.44 2.67,-1.08 4.15,-1.92c0.72,-0.47 1.15,-0.9 1.27,-1.29l0.97,-2.91c-0.45,-1.14 -0.4,-2.67 0.13,-4.59c-0.04,-0.06 -0.09,-0.14 -0.13,-0.24l-0.01,0c0.14,-0.38 0.32,-1.16 0.55,-2.33l2.38,-3.11l4.34,-2.89l1.19,-1.85c2.73,-1.77 4.06,-2.99 4.01,-3.67l-1.17,-3.61c0.59,-0.98 0.42,-2.49 -0.49,-4.52c-0.38,-0.37 -0.86,-0.55 -1.44,-0.55c-0.57,0 -1.24,0.18 -2.01,0.53c-0.73,-0.77 -1.8,-1.15 -3.21,-1.15c-0.15,0 -0.3,0 -0.46,0.02l-3.22,-3.42c-1.5,-1.39 -2.49,-2.14 -2.97,-2.27l-0.06,-0.36c0.04,-0.54 0.35,-1.61 0.93,-3.23c-0.81,-1.44 -1,-2.4 -0.56,-2.91c1.16,-2.31 2.95,-4.53 5.36,-6.64l1.33,-1.21l6.45,0.6c0.07,0 0.13,0 0.2,0c0.7,0 1.09,-0.18 1.16,-0.54c-0.1,-0.54 -0.61,-1.28 -1.54,-2.19l2.27,-2.33c-0.12,-0.87 0.08,-1.68 0.6,-2.41c0.09,-2.89 -0.23,-5.01 -0.95,-6.37c1.37,-2.5 2.2,-3.74 2.48,-3.74c0,0 0,0 0.01,0l0.49,-2.13c0.18,-0.15 0.44,-0.23 0.79,-0.23c0.44,0 1.02,0.12 1.73,0.34c0.57,-0.21 0.88,-0.5 0.91,-0.88c0.01,-0.24 -0.17,-0.51 -0.53,-0.79l-3.67,-1.97c0.02,-0.45 0.18,-0.8 0.47,-1.06c1.27,-0.42 2.07,-0.89 2.4,-1.39c0.52,-0.89 0.63,-1.52 0.34,-1.89c-1.9,-1.45 -3.21,-2.22 -3.93,-2.32c-0.07,-0.18 -0.14,-0.35 -0.21,-0.51l-0.01,0c0.07,-0.5 0.15,-1.1 0.26,-1.78l0,0c-0.02,0.01 -0.03,0.02 -0.05,0.02c-0.36,0 -1,-3.68 -1.92,-11.06c0.04,-0.48 0.08,-0.93 0.12,-1.35l-0.01,0c0.01,0 0.02,0 0.03,0c0.7,0 1.56,0.15 2.58,0.44l5.34,1.73c1.04,2.04 3.22,3.4 6.54,4.05c1.12,-0.07 2.41,-0.37 3.86,-0.9c3.82,-2.86 5.7,-4.61 5.66,-5.25c0.34,-2.92 -0.2,-5.22 -1.63,-6.89l0.57,-7.04c-1.5,-1.61 -1.78,-3.22 -0.85,-4.86l0,0c0.85,0.24 1.91,0.35 3.19,0.35c0.51,0 1.05,-0.02 1.63,-0.06c1.68,-1.09 4.34,-1.76 7.97,-1.99c1.36,0.77 3.36,1.15 5.99,1.15c1.82,0 3.95,-0.18 6.37,-0.55c0.02,0.02 0.06,0.03 0.1,0.03c0.43,0 1.99,-1.05 4.67,-3.14c0.2,0.14 0.55,0.2 1.04,0.2c1.52,0 4.37,-0.64 8.56,-1.92c-0.18,-0.01 0.47,-2.16 1.96,-6.43c2.61,-2.71 4.55,-5.51 5.81,-8.4c-0.8,-1.19 -1.11,-2.59 -0.93,-4.2c-1.56,-0.8 -3.07,-2.38 -4.54,-4.74l0.41,-5.28c-1.21,-2.72 -4.49,-6.04 -9.84,-9.96l-1.74,-5.77c0.83,-1.76 1.22,-3.7 1.18,-5.82c0.11,-0.38 1.01,-1.39 2.71,-3.04c-0.09,-1.47 0.4,-2.85 1.46,-4.15l-1.22,-5.07c1.61,-4.42 2.38,-7.84 2.29,-10.27c0.44,-1.47 1.5,-3.81 3.18,-7c0.08,-0.34 0.13,-0.69 0.14,-1.04l0,0c0.06,-0.07 0.11,-0.14 0.14,-0.21c0.41,-0.56 0.97,-1.69 1.68,-3.38c1.56,-1.06 2.41,-2.08 2.55,-3.05c0.29,-0.32 1.08,-0.85 2.38,-1.6l1.22,-2.14c0.58,-0.25 1.44,-0.91 2.58,-2l0.78,-0.82c-0.01,-0.3 0.73,-1.28 2.22,-2.95l4.58,-4.41c0.56,-0.58 2.42,-1.71 5.57,-3.39c1.53,-1.7 2.56,-2.72 3.06,-3.05c0.87,-0.13 1.67,-0.38 2.39,-0.74c0.57,-0.19 1.6,-0.94 3.1,-2.26c1.96,-0.31 2.96,-0.74 3,-1.31l0.33,-0.83c0.03,-3.12 0.42,-6.15 1.17,-9.11l-1.23,-5.92c-0.32,-0.7 -0.74,-1.22 -1.26,-1.58c-0.34,0.05 -0.7,0.07 -1.09,0.07c-1.1,0 -2.42,-0.19 -3.95,-0.58l-0.12,0.03c-0.37,0.18 -1.05,1.08 -2.05,2.71l0.44,2.45c-0.53,0.2 -1.23,3.02 -2.11,8.46l-2.18,1.77c-2.07,0.4 -3.39,0.81 -3.97,1.24l-1.16,2.72c-0.22,0.43 -0.47,0.68 -0.73,0.75c-0.04,0.02 -0.07,0.02 -0.11,0.02c-0.34,0 -0.91,-0.54 -1.69,-1.64c-0.35,-0.11 -0.75,-0.17 -1.19,-0.17c-0.18,0 -0.37,0.01 -0.56,0.02l-0.6,2.65c-0.14,0.28 -0.41,0.51 -0.8,0.68c-0.09,0.03 -0.18,0.05 -0.28,0.06c-0.22,-0.29 -0.47,-0.44 -0.76,-0.45c-0.11,-0.02 -0.23,-0.03 -0.35,-0.03c-0.22,0 -0.46,0.03 -0.73,0.08l-1.22,-0.84c-1.41,-0.09 -2.61,-0.35 -3.61,-0.77c-1.05,0.31 -1.74,0.47 -2.05,0.47c-0.04,0 -0.07,0 -0.09,-0.01c-0.92,-0.96 -1.61,-1.48 -2.07,-1.58c-0.39,0.09 -0.81,0.14 -1.26,0.14c-0.99,0 -2.12,-0.23 -3.38,-0.7l-5.66,0.19l1.07,-0.33c0.2,-0.19 0.2,-1.16 0.01,-2.92c1.31,-0.72 2.32,-1.5 3.05,-2.35c0.5,-2.5 1.01,-4.41 1.54,-5.71c0.36,-1.26 1.35,-2.68 2.98,-4.27c0.56,-1.86 0.47,-3.77 -0.27,-5.75c-0.15,-0.42 -0.95,-1.15 -2.41,-2.19c-4.67,-1.65 -6.84,-2.7 -6.51,-3.16c-0.64,-0.1 -1.21,-0.2 -1.7,-0.3l-0.01,0c-1.07,-0.9 -2.29,-1.77 -3.66,-2.62l-0.99,-0.39l-1.19,-1.14c-4.77,-2.04 -7.81,-3.71 -9.11,-5c-0.5,-0.26 -1.72,-0.54 -3.66,-0.86c-1.71,-1.96 -3.31,-2.94 -4.82,-2.94c-0.15,0 -0.31,0.01 -0.46,0.03c-3.6,-3.4 -5.92,-6.2 -6.94,-8.38c-0.42,-0.47 -1.11,-1.01 -2.04,-1.61c-0.94,-1.67 -1.9,-2.81 -2.89,-3.41l-4.16,-1.19l-0.86,0.17c-0.39,-0.04 -0.8,-0.07 -1.24,-0.07c-0.55,0 -1.14,0.04 -1.77,0.1c-1.16,-0.25 -1.95,-0.38 -2.37,-0.38c-0.06,0 -0.1,0 -0.14,0.01l-0.15,0c0,0 -0.01,0 -0.01,0c-0.25,0 -0.45,0.06 -0.6,0.19l-0.74,0.89l0,0c-0.08,0.02 -0.15,0.04 -0.22,0.06c-0.52,0.26 -0.87,0.64 -1.06,1.15c0.02,0.18 0.05,0.36 0.07,0.52l0,0c0,1.26 -0.15,2.55 -0.46,3.87c-0.21,0.68 -0.51,1.02 -0.87,1.02c-1.31,-0.07 -1.98,-0.21 -2.03,-0.43c-1.24,-2.26 -1.99,-3.5 -2.28,-3.71c-0.74,-0.15 -1.42,-0.34 -2.03,-0.55l0,0l-2.71,-1.48c-1.22,0.17 -2.26,0.25 -3.11,0.25c-0.58,0 -1.08,-0.04 -1.48,-0.12c-2.29,-1.13 -3.78,-1.69 -4.47,-1.69zm-0.03,312.04l0.24,0.17c-0.01,-0.02 -0.04,-0.04 -0.06,-0.06l-0.03,-0.02c-0.02,-0.02 -0.04,-0.03 -0.05,-0.04c-0.02,-0.02 -0.04,-0.02 -0.05,-0.04l-0.02,-0.01l-0.03,0zm0.26,0.18l0.09,0.08c0.25,0.25 0.62,0.66 1.08,1.23c0.26,0.21 0.56,0.45 0.9,0.72c-0.03,-0.19 -0.05,-0.34 -0.08,-0.44c-0.01,-0.04 -0.02,-0.1 -0.06,-0.18c-0.01,-0.03 -0.02,-0.05 -0.03,-0.06l-1.9,-1.35zm2.07,2.03l0.02,0.09l0.12,1.02c-0.18,2.17 -0.25,3.63 -0.21,4.39l1.02,5.16c-0.05,1.91 0.06,3.82 0.33,5.72c0.01,0.27 -0.06,1.14 -0.21,2.6l0.69,1.98c0.12,0.07 0.32,0.1 0.59,0.1c0.73,0 1.96,-0.23 3.71,-0.7c0.01,0 0.02,0 0.04,0c0.14,0 0.59,0.11 1.33,0.34c0.75,-0.23 1.28,-0.34 1.59,-0.34c0.04,0 0.07,0 0.1,0c0.01,0 0.02,-0.01 0.04,-0.01c0.18,0 0.77,0.19 1.75,0.56l3.79,0.06c0.25,0.01 0.59,0.22 1.02,0.64l0.34,0.08c0.07,0 0.2,-0.07 0.38,-0.2c0.35,-0.28 0.66,-0.55 0.93,-0.81c0.11,-0.08 0.31,-0.14 0.59,-0.2c0.07,-0.02 0.16,-0.03 0.25,-0.03c0.34,0 0.81,0.13 1.42,0.38c0.09,0.01 0.17,0.01 0.25,0.01c0.3,0 0.58,-0.04 0.84,-0.1c0.69,-0.57 1.25,-0.86 1.65,-0.9c0.19,-0.18 0.28,-0.36 0.26,-0.52c-0.83,-1.73 -1.43,-2.68 -1.79,-2.84l-1.91,-0.27c-0.55,-0.33 -0.91,-0.49 -1.08,-0.49c-0.02,0 -0.03,0 -0.04,0l-2.9,0.45c-0.26,0.01 -0.49,0.02 -0.69,0.02c-0.52,0 -0.84,-0.04 -0.97,-0.13c-0.98,-1.48 -1.89,-2.55 -2.73,-3.22c-0.17,-0.54 -0.44,-1 -0.8,-1.37c-0.13,-0.16 -0.71,-0.32 -1.73,-0.47c-0.32,-0.15 -0.59,-0.36 -0.81,-0.63c-0.19,-0.23 -0.39,-0.64 -0.61,-1.2c-0.59,-0.42 -0.96,-0.77 -1.13,-1.03l-1.14,-1.99c-0.68,-0.31 -1.27,-0.69 -1.76,-1.14c-0.62,-0.02 -0.97,-0.1 -1.05,-0.23c-0.44,-0.65 -0.61,-1.1 -0.51,-1.36c1.24,-0.44 1.75,-0.93 1.55,-1.48c-0.18,-0.37 -0.36,-0.61 -0.53,-0.74c-0.55,-0.18 -1.21,-0.57 -2,-1.2zm0,0" fill="#FFFFFF" fill-rule="nonzero" id="svg_3"/>
  </g>
 </g>
</svg>